# xmcd
#
# Track frame offsets:
#	150
#	12678
#	24988
#	37533
#	51205
#	62743
#	75678
#	89885
#	103520
#	116078
#	129948
#	143790
#	157465
#	169310
#	183363
#	197620
#
# Disc length: 2790 seconds
# Revision: 0
# Processed by: cddbd v1.5.2PL0 Copyright (c) Steve Scherf et al.
# Submitted via: dBpowerAMP V12.0
#
DISCID=db0ae410
DTITLE=Bing Crosby - On The Sentimental Side
DYEAR=1994
DGENRE=Pop Vocals
TTITLE0=My Heart Is Taking Lessons
TTITLE1=The Funny Old Hills
TTITLE2=Joobalai
TTITLE3=East Side Of Heaven
TTITLE4=Hang Your Heart On A Hickory Limb
TTITLE5=On The Sentimental Side
TTITLE6=This Is My Night To Dream
TTITLE7=I Have Eyes
TTITLE8=You're A Sweet Little Headache
TTITLE9=That Sly Old Gentleman
TTITLE10=An Apple For The Teacher
TTITLE11=A Man And His Dream
TTITLE12=Still The Bluebird Sings
TTITLE13=April Played The Fiddle
TTITLE14=The Moon And The Willow Tree
TTITLE15=Meet The Sun Half Way
EXTD=
EXTT0=
EXTT1=
EXTT2=
EXTT3=
EXTT4=
EXTT5=
EXTT6=
EXTT7=
EXTT8=
EXTT9=
EXTT10=
EXTT11=
EXTT12=
EXTT13=
EXTT14=
EXTT15=
PLAYORDER=
